<svg xmlns="http://www.w3.org/2000/svg" version="1.1" xmlns:xlink="http://www.w3.org/1999/xlink" xmlns:svgjs="http://svgjs.dev/svgjs" width="1000" height="623" viewBox="0 0 1000 623"><g transform="matrix(1,0,0,1,-0.6060606060606233,0.2522267206477409)"><svg viewBox="0 0 396 247" data-background-color="#ffffff" preserveAspectRatio="xMidYMid meet" height="623" width="1000" xmlns="http://www.w3.org/2000/svg" xmlns:xlink="http://www.w3.org/1999/xlink"><defs></defs><g id="tight-bounds" transform="matrix(1,0,0,1,0.2400000000000091,-0.09999999999999432)"><svg viewBox="0 0 395.52 247.2" height="247.2" width="395.52"><g><svg></svg></g><g><svg viewBox="0 0 395.52 247.2" height="247.2" width="395.52"><g transform="matrix(1,0,0,1,39.55199999999999,71.69933472280117)"><svg viewBox="0 0 316.416 103.80133055439765" height="103.80133055439765" width="316.416"><g><svg viewBox="0 0 316.416 103.80133055439765" height="103.80133055439765" width="316.416"><g><svg viewBox="0 0 316.416 103.80133055439765" height="103.80133055439765" width="316.416"><g><svg viewBox="0 0 316.416 103.80133055439765" height="103.80133055439765" width="316.416"><g><svg viewBox="0 0 316.416 103.80133055439765" height="103.80133055439765" width="316.416"><g><svg viewBox="0 0 316.416 103.80133055439765" height="103.80133055439765" width="316.416"><g transform="matrix(1,0,0,1,0,0)"><svg width="316.416" viewBox="1.5499999523162842 -38.849998474121094 119.93999481201172 39.349998474121094" height="103.80133055439765" data-palette-color="#096a2e"><path d="M1.55-10.25L1.55-10.25Q1.55-12.55 2.43-14.58 3.3-16.6 4.8-18.13 6.3-19.65 8.28-20.55 10.25-21.45 12.5-21.45L12.5-21.45Q14-21.45 15.25-21.08 16.5-20.7 17.4-20.15 18.3-19.6 18.85-19 19.4-18.4 19.6-17.95L19.6-17.95 19.8-20.9 23.9-20.9 23.9 0 19.6 0 19.6-2.65Q19.35-2.25 18.8-1.7 18.25-1.15 17.38-0.68 16.5-0.2 15.3 0.15 14.1 0.5 12.55 0.5L12.55 0.5Q10.15 0.5 8.13-0.38 6.1-1.25 4.65-2.73 3.2-4.2 2.38-6.15 1.55-8.1 1.55-10.25ZM5.85-10.5L5.85-10.5Q5.85-9.05 6.38-7.8 6.9-6.55 7.8-5.65 8.7-4.75 9.95-4.23 11.2-3.7 12.7-3.7L12.7-3.7Q14.2-3.7 15.48-4.23 16.75-4.75 17.68-5.68 18.6-6.6 19.1-7.83 19.6-9.05 19.6-10.5L19.6-10.5Q19.6-11.95 19.1-13.18 18.6-14.4 17.68-15.3 16.75-16.2 15.48-16.73 14.2-17.25 12.7-17.25L12.7-17.25Q11.2-17.25 9.95-16.73 8.7-16.2 7.8-15.3 6.9-14.4 6.38-13.18 5.85-11.95 5.85-10.5ZM42.35-21.45L41.4-15.95Q40-15.95 38.7-15.58 37.4-15.2 36.37-14.45 35.35-13.7 34.75-12.58 34.15-11.45 34.15-10L34.15-10 34.15 0 29.9 0 29.9-20.9 33.65-20.9Q33.75-19.35 33.82-18.07 33.9-16.8 34-15.55L34-15.55Q34.65-16.9 35.7-18 36.75-19.1 37.95-19.85 39.15-20.6 40.3-21.03 41.45-21.45 42.35-21.45L42.35-21.45ZM47.25-20.85L47.25-30.1 51.5-30.1 51.5-20.85 57.1-20.85 57.1-17.05 51.5-17.05 51.5 0 47.25 0 47.25-17.05 43.5-17.05 43.5-20.85 47.25-20.85ZM60.09-28.9L60.09-28.9Q60.09-30.1 60.97-30.9 61.84-31.7 62.84-31.7L62.84-31.7Q63.84-31.7 64.69-30.9 65.54-30.1 65.54-28.9L65.54-28.9Q65.54-27.7 64.69-26.93 63.84-26.15 62.84-26.15L62.84-26.15Q61.84-26.15 60.97-26.93 60.09-27.7 60.09-28.9ZM64.89-20.9L64.89 0 60.64 0 60.64-20.9 64.89-20.9ZM84.89-5.15L84.89-5.15Q85.59-4.3 86.22-3.53 86.84-2.75 87.49-1.9L87.49-1.9Q86.09-0.8 84.34-0.15 82.59 0.5 80.54 0.5L80.54 0.5Q78.24 0.5 76.22-0.38 74.19-1.25 72.69-2.75 71.19-4.25 70.32-6.25 69.44-8.25 69.44-10.5L69.44-10.5Q69.44-12.75 70.32-14.75 71.19-16.75 72.69-18.23 74.19-19.7 76.22-20.58 78.24-21.45 80.54-21.45L80.54-21.45Q82.64-21.45 84.42-20.8 86.19-20.15 87.64-19.05L87.64-19.05 84.89-15.8Q84.04-16.5 82.94-16.88 81.84-17.25 80.54-17.25L80.54-17.25Q79.04-17.25 77.79-16.73 76.54-16.2 75.62-15.3 74.69-14.4 74.19-13.18 73.69-11.95 73.69-10.5L73.69-10.5Q73.69-9.05 74.19-7.83 74.69-6.6 75.62-5.68 76.54-4.75 77.79-4.23 79.04-3.7 80.54-3.7L80.54-3.7Q81.84-3.7 82.94-4.08 84.04-4.45 84.89-5.15ZM95.99-38.85L95.99 0 91.74 0 91.74-38.85 95.99-38.85ZM116.54-5.55L119.74-2.45Q118.24-1.1 116.09-0.3 113.94 0.5 111.69 0.5L111.69 0.5Q109.39 0.5 107.36-0.38 105.34-1.25 103.84-2.73 102.34-4.2 101.46-6.2 100.59-8.2 100.59-10.45L100.59-10.45Q100.59-12.7 101.46-14.7 102.34-16.7 103.84-18.2 105.34-19.7 107.31-20.58 109.29-21.45 111.54-21.45L111.54-21.45Q115.09-21.45 117.71-19.33 120.34-17.2 121.49-13.75L121.49-13.75Q119.94-13.2 117.94-12.4 115.94-11.6 113.79-10.73 111.64-9.85 109.49-9 107.34-8.15 105.49-7.45L105.49-7.45Q106.34-5.75 107.96-4.73 109.59-3.7 111.59-3.7L111.59-3.7Q112.94-3.7 114.31-4.2 115.69-4.7 116.54-5.55L116.54-5.55ZM116.14-14.75L116.14-14.75Q115.54-16 114.24-16.63 112.94-17.25 111.59-17.25L111.59-17.25Q110.14-17.25 108.91-16.7 107.69-16.15 106.79-15.23 105.89-14.3 105.36-13.1 104.84-11.9 104.84-10.65L104.84-10.65Q104.84-10.4 104.86-10.3 104.89-10.2 104.89-10.15L104.89-10.15Q106.19-10.65 107.71-11.28 109.24-11.9 110.74-12.53 112.24-13.15 113.64-13.73 115.04-14.3 116.14-14.75Z" opacity="1" transform="matrix(1,0,0,1,0,0)" fill="#096a2e" class="undefined-text-0" data-fill-palette-color="primary" id="text-0"></path></svg></g></svg></g></svg></g></svg></g></svg></g></svg></g></svg></g><g><path d="M0 247.2v-247.2h395.52v247.2zM386.159 237.839v-228.478h-376.798v228.478z" fill="#096a2e" data-fill-palette-color="tertiary"></path></g></svg></g></svg><rect width="395.52" height="247.2" fill="none" stroke="none" visibility="hidden"></rect></g></svg></g></svg>